<?xml version="1.0" standalone="no"?>
<!DOCTYPE svg PUBLIC "-//W3C//DTD SVG 20010904//EN"
 "http://www.w3.org/TR/2001/REC-SVG-20010904/DTD/svg10.dtd">
<svg version="1.0" xmlns="http://www.w3.org/2000/svg"
 width="700.000000pt" height="700.000000pt" viewBox="0 0 700.000000 700.000000"
 preserveAspectRatio="xMidYMid meet">
<metadata>
Created by potrace 1.14, written by Peter Selinger 2001-2017
</metadata>
<g transform="translate(0.000000,700.000000) scale(0.100000,-0.100000)"
fill="#000000" stroke="none">
<path d="M3809 5165 c0 -13 0 -3328 0 -3335 1 -3 159 -5 351 -5 l350 0 1 620
c0 341 2 638 3 660 13 194 62 314 170 420 111 109 272 163 451 152 245 -16
384 -143 441 -402 4 -16 8 -347 9 -735 2 -388 4 -707 4 -710 1 -3 159 -5 351
-5 l350 0 -1 770 c0 423 -5 795 -10 825 -5 30 -11 74 -14 97 -12 101 -83 278
-152 379 -137 201 -349 329 -628 378 -81 15 -335 15 -420 1 -183 -31 -399
-132 -515 -242 l-35 -33 -5 588 -5 587 -347 0 c-228 0 -348 -3 -349 -10z"/>
<path d="M710 4688 l0 -298 505 0 505 0 2 -1282 3 -1283 363 0 362 0 1 35 c0
19 0 596 1 1283 l0 1247 504 0 c277 0 504 3 505 8 4 27 3 582 -1 583 -3 1
-623 3 -1377 3 l-1373 2 0 -298z"/>
</g>
</svg>
